<svg xmlns="http://www.w3.org/2000/svg" width="430.001" height="160.224" viewBox="0 0 430.001 160.224">
  <g id="Grupo_1" data-name="Grupo 1" transform="translate(-683 -316.966)">
    <path id="path4136" d="M221.6,173.241c-13.8-10.43-6.879-25.018-7.993-37.468,5.607-9.372-14.014-13.478-16.236-3.053-6.8,6.009-8.4,20.723-22.087,18.386-5.3-.906-12.5-4.126-12.181-7.614l1.319-14.627c-16.48,3.856-16.3,19.614-33.753,22.944-9.122,1.675-27.008,2.978-29.706-4.275-4.531-10.945,10.2-19.608,20.473-27.016,7.374-11.895-16.8-12.5-22.516-3-3.959,5-25.749,13.1-18.291,2.839,2.94-4.044,24.364-9.818,15.115-13.679-8.1-3.174-16.945,4.373-25.682,5.031-10.577,3.468-30.442,8.189-33.251-2.763,3.287-3.318,4.141-8.4,11.581-8.706,10.323-2.887,24.04-3.3,30.024-10.1-11-6.861-31.1-5.442-45.778-8.71-8.592-.017-22.31-5.011-16.049-11.1,7.387-9.56,29.786-2.359,42.552-.785C71.88,70.229,89.6,79.6,98.3,75.834,86.666,68.168,68.319,65.927,56.73,58.285c-5.407-3.565,3.062-7.853,7.451-6.048,14.468,5.949,27.253,13.275,39.842,20.684,9.592-7.187,2.283-14.435-5.325-21.037-7.118-8.271-17.239-17.89-12.375-27.05,1.856-3.5,9.742-7.1,14.892-6.32,7.373,1.116,14.03,3.591,17.8,8.581,7.16,9.468,10.643,19.318,13.68,29.4,8.736-4.128,24.941-20.626,41.606-9.938,13.353,10.019-4.076-9.685,1.517-14.717.3-4.692,8.906-12.433,17.016-9.972,16.921,5.624,18.837,18.6,20.425,29.423,4.6,5.689,14.307,1.613,10.169-3.993,0,0-9.913-12.788-.862-15.274S232.227,44.7,235.755,51c6.137,8.194,8.271-.431,6.968-4.944.4-6.613-.39-13.41.747-19.909,10.062-21.075,47.723-8.2,49.026,5.309-.265,4.994,1.226,24.471,8.952,12.436.022-13.195,36.213-14.15,29.945,1.086-.175,5.627-10.662,22.6,6.566,13,2.254-7.7,3.088-26.156,22.009-20.138,4.829,6.918-11.731,17.733-7.147,22.628C357.5,55.308,376.7,49.225,374.664,58.8L363.508,70.739c14.366,2.421,23.282-13.284,37.543-16.225,10.674-3.053,29.7.964,23.805,9.316-10.708,9.559-29.439,12.728-43.5,19.641,6.435,4.061,29.391-2.683,42.212-2.345,13.011-5,33.412,5.079,12.339,8.419-7.726,2.949-17.331.834-25.915,1.473-6.3-.787-31.622.964-17.251,5.374,9.118,4.107,18.879,7.818,26.469,13.1-4.609,8.589-23.378,4.9-33.271,2.232-12.021-6.065-4.719,6-13.775,5.329-8.744.009-8.274-12.679-17.324-7.5-4.7,10.765,22.2,20.642,16.235,30.434-15.614,25.63-44.462-17.915-51.755-15.117-2.126,4.93,7.119,12.96-3.419,14.982-5.088,2.85-11.371-.945-17.056-1.329-9.353-.632-11.563-7.689-18.46-10.78-2.392,5.418,3.237,11.7,4.813,17.422.622,4.64-12.794,8.139-16.043,4.466-5.151-6.477.073-23.824-15.9-20.465-4.193,11.149-3.882,22.864-6.682,34.072-3.71,3.617-5.982,8.553-10.556,11.376-4.966.323-10.807,1.762-14.411-1.372Z" transform="translate(668 301.965)" fill="#a248a3"/>
    <text id="OVERCOOKED_" data-name="OVERCOOKED!" transform="matrix(0.985, -0.174, 0.174, 0.985, 705.062, 440.29)" fill="#fff" stroke="#000" stroke-width="4" font-size="50" font-family="CooperBlack, Cooper"><tspan x="0" y="0">OVERCOOKED!</tspan></text>
  </g>
</svg>
